<svg id="Camada_1" data-name="Camada 1" xmlns="http://www.w3.org/2000/svg" viewBox="0 0 123.06 24"><defs><style>.cls-1{fill:#2b56c0;}</style></defs><path class="cls-1" d="M20.91,12.89c-2.1-2.58-9-1.23-14.44.5h0l0,0,0,0v0c0-.28,0-.55,0-.83A23.7,23.7,0,0,0,6,8.35a.07.07,0,0,1,0-.06.1.1,0,0,1,.05,0c4.47-1.64,13.48-2.14,15,4.56,0,.1-.12.16-.18.08Zm-4.53,7.52c-.14.11-.34-.07-.21-.2,2.18-2.24,4-5.78-11.81,1.43-.09,0-.19-.06-.13-.14a13.64,13.64,0,0,0,2-6.1.08.08,0,0,1,0-.05s0,0,0,0C16.17,11.33,27.34,11.48,16.38,20.41ZM3.19,2.58l0,0a.06.06,0,0,1,0-.06l0,0,.06,0c2.74,0,11-.2,15.22,5.24.06.09-.07.18-.16.11C17,6.64,13.55,4.75,5.56,6.41H5.48a.13.13,0,0,1-.05-.06A7.26,7.26,0,0,0,3.19,2.58ZM20.75,0h-18A2.82,2.82,0,0,0,0,2.85v18.3A2.82,2.82,0,0,0,2.79,24h18a2.86,2.86,0,0,0,2-.84,2.9,2.9,0,0,0,.81-2V2.85a2.9,2.9,0,0,0-.81-2A2.86,2.86,0,0,0,20.75,0Z"/><path class="cls-1" d="M27.69,4.66h5.76c3,0,4.77,1.86,4.77,4.47s-1.78,4.46-4.77,4.46h-3v5.47H27.69Zm5.63,6.65a2.05,2.05,0,0,0,2.26-2.18A2.05,2.05,0,0,0,33.32,7H30.41v4.36ZM43.67,8.54a5.19,5.19,0,0,1,5.39,5.34,5.4,5.4,0,0,1-10.8,0,5.2,5.2,0,0,1,5.41-5.35Zm0,8.51a2.87,2.87,0,0,0,2.85-3.17,2.87,2.87,0,1,0-5.72,0,2.88,2.88,0,0,0,2.87,3.17Zm6.54-4.65a3.35,3.35,0,0,1,3.68-3.7h2.32v2.12H54.28a1.42,1.42,0,0,0-1.55,1.58v6.67H50.21Zm7.27-6.83H60V8.7h2.87v2.12H60v4.52a1.39,1.39,0,0,0,1.49,1.59h1.38v2.14H61.21a3.4,3.4,0,0,1-3.73-3.62ZM69,8.53a5.2,5.2,0,0,1,5.39,5.35,5.4,5.4,0,0,1-10.8,0A5.2,5.2,0,0,1,69,8.53Zm0,8.52a2.88,2.88,0,0,0,2.85-3.17,2.88,2.88,0,1,0-5.72,0A2.88,2.88,0,0,0,69,17.05Z"/><path d="M77.7,4.66h5.55c2.62,0,4.49,1.32,4.49,3.71A3.25,3.25,0,0,1,86,11.21a3.64,3.64,0,0,1,2.47,3.6c0,2.67-2,4.25-5,4.25H77.7Zm5.37,5.64c1.43,0,2.15-.62,2.15-1.73S84.5,6.84,83,6.84H80.36V10.3Zm.1,6.4c1.82,0,2.68-.7,2.68-2S85,12.6,83.17,12.6H80.36v4.1Z"/><path d="M94.37,10.42a2,2,0,0,0-2.17,1.77H90c.12-2,1.87-3.66,4.55-3.66S99,10.05,99,12.4v6.66H96.49V17.52a3.2,3.2,0,0,1-3.09,1.71A3.16,3.16,0,0,1,90,16.12c0-2,1.56-3.27,3.87-3.27h2.67v-.43A1.88,1.88,0,0,0,94.37,10.42ZM94,17.36a2.43,2.43,0,0,0,2.5-2.68v-.12H94.3c-1.19,0-1.91.55-1.91,1.46S93,17.36,94,17.36Z"/><path d="M101.05,8.7h2.52v1.6a3.42,3.42,0,0,1,3.22-1.77,3.78,3.78,0,0,1,3.85,4.12v6.41h-2.52V13.18A2.18,2.18,0,0,0,106,10.77a2.43,2.43,0,0,0-2.4,2.64v5.65h-2.52Z"/><path d="M113,19.06V4.25h2.52v8.23l4-3.78h3.19l-4.19,4.07,4.55,6.29H120l-3.21-4.62-1.23,1.19v3.43Z"/></svg>